<?xml version="1.0" encoding="utf-8"?>
<!-- Generator: Adobe Illustrator 27.1.1, SVG Export Plug-In . SVG Version: 6.00 Build 0)  -->
<svg version="1.1" id="Ebene_1" xmlns="http://www.w3.org/2000/svg" xmlns:xlink="http://www.w3.org/1999/xlink" x="0px" y="0px"
	 viewBox="0 0 100 100" enable-background="new 0 0 100 100" xml:space="preserve">
<g>
	<rect y="0" fill="#36397F" width="100" height="100"/>
	<path fill="#FFFFFF" d="M25.1,86.6h16.3V58h5c6.7,0.1,9.8,2.6,11.7,11.6c2.2,8.9,3.9,14.9,5.1,16.9H80c-1.4-2.8-3.7-12.3-5.9-20.5
		c-1.8-6.7-4.6-11.5-9.7-13.6v-0.3c6.2-2.3,12.8-8.6,12.8-17.9c0-6.7-2.4-11.7-6.7-15.2c-5.2-4.1-12.7-5.7-23.5-5.7
		c-8.7,0-16.6,0.6-21.9,1.5V86.6z M41.4,26.1c1.2-0.2,3.5-0.5,7.4-0.5c7.5,0.1,12.1,3.5,12.1,10.1c0,6.4-4.8,10.5-13,10.5h-6.5V26.1
		z"/>
</g>
</svg>
