<?xml version="1.0" standalone="no"?>
<!DOCTYPE svg PUBLIC "-//W3C//DTD SVG 20010904//EN"
 "http://www.w3.org/TR/2001/REC-SVG-20010904/DTD/svg10.dtd">
<svg version="1.0" xmlns="http://www.w3.org/2000/svg"
 width="300.000000pt" height="300.000000pt" viewBox="0 0 300.000000 300.000000"
 preserveAspectRatio="xMidYMid meet">

<g transform="translate(0.000000,300.000000) scale(0.100000,-0.100000)"
fill="#294f64" stroke="none">
<path d="M0 1500 l0 -1500 1500 0 1500 0 0 1500 0 1500 -1500 0 -1500 0 0
-1500z m2915 750 l0 -665 -1415 0 -1415 0 -3 655 c-1 360 0 661 3 668 3 10
292 12 1417 10 l1413 -3 0 -665z m-1945 -1020 l0 -70 -90 0 -90 0 0 -350 0
-350 -80 0 -80 0 -2 353 -3 352 -87 -2 -88 -2 0 69 0 70 260 0 260 0 0 -70z
m460 -82 c23 -84 76 -270 116 -412 41 -143 74 -263 74 -268 0 -4 -37 -8 -83
-8 l-83 0 -18 71 c-10 38 -22 86 -27 105 l-10 34 -122 0 -123 0 -25 -102 -25
-103 -83 -3 c-83 -3 -83 -3 -78 20 18 70 228 801 233 809 3 5 51 9 108 9 l102
0 44 -152z m438 70 c20 -46 51 -112 67 -147 l31 -64 59 147 59 146 78 0 c46 0
78 -4 78 -10 0 -6 -43 -96 -95 -201 l-96 -190 82 -157 c45 -86 97 -185 116
-220 l35 -63 -91 3 -91 3 -71 150 c-39 83 -74 153 -78 157 -3 4 -37 -65 -76
-153 l-70 -159 -82 0 c-46 0 -83 4 -83 10 0 5 50 100 111 212 l110 203 -28 59
c-15 33 -60 125 -99 203 -39 79 -68 145 -66 148 3 3 41 5 84 5 l78 0 38 -82z
m682 -338 l0 -420 -80 0 -80 0 0 420 0 420 80 0 80 0 0 -420z"/>
<path d="M2131 2592 c-60 -30 -75 -62 -81 -165 l-5 -92 -42 1 -43 1 0 -57 0
-57 43 1 42 1 3 -257 2 -258 75 0 75 0 0 259 0 258 50 -1 50 -1 0 55 0 55 -50
-1 -50 -1 0 72 c0 86 17 110 74 103 34 -4 35 -2 46 40 6 23 8 47 5 53 -11 17
-157 11 -194 -9z"/>
<path d="M670 2136 l0 -426 75 0 75 0 2 178 3 177 27 3 c48 6 83 -40 153 -203
l65 -150 89 -3 90 -3 -55 123 c-84 190 -106 231 -142 255 l-34 22 39 16 c85
36 133 111 133 210 0 64 -23 127 -56 157 -11 10 -42 27 -69 40 -44 20 -69 23
-222 26 l-173 4 0 -426z m315 280 c57 -37 57 -136 1 -192 -26 -26 -44 -34 -88
-39 -31 -4 -61 -4 -67 0 -13 7 -16 237 -3 249 12 13 130 -1 157 -18z"/>
<path d="M1382 2332 l-24 -4 4 -251 c3 -238 4 -254 25 -293 51 -95 203 -113
282 -34 16 17 32 30 35 30 2 0 6 -15 8 -32 l3 -33 68 -3 67 -3 0 311 0 310
-42 1 c-24 0 -58 1 -76 2 l-32 2 0 -206 c0 -124 -4 -220 -11 -240 -21 -64 -87
-97 -139 -69 -33 18 -40 66 -40 291 0 202 -1 219 -17 220 -10 0 -34 1 -53 2
-19 1 -45 1 -58 -1z"/>
<path d="M1232 987 c-23 -94 -42 -178 -42 -184 0 -10 25 -13 91 -13 81 0 90 2
85 18 -3 9 -22 87 -42 172 -20 85 -39 161 -43 167 -4 7 -26 -65 -49 -160z"/>
</g>
</svg>
